<svg xmlns="http://www.w3.org/2000/svg" width="375" viewBox="0 0 375 375" height="375" version="1.0"><path fill="#5CE1E6" d="M 120.660156 138.523438 C 93.53125 138.523438 71.535156 160.515625 71.535156 187.648438 C 71.535156 214.777344 93.53125 236.773438 120.660156 236.773438 C 147.792969 236.773438 169.785156 214.777344 169.785156 187.648438 C 169.785156 160.515625 147.792969 138.523438 120.660156 138.523438"/><g fill="#FFF"><g><g><path d="M 23.703125 0 L 12.046875 0 L 12.046875 -33.625 L 1.5 -33.625 L 1.5 -43.15625 L 34.21875 -43.15625 L 34.21875 -33.625 L 23.703125 -33.625 Z M 23.703125 0" transform="translate(93.917 210.99)"/></g></g></g><g fill="#FFF"><g><g><path d="M 2.53125 -4.90625 C 2.53125 -6.707031 3.066406 -8.097656 4.140625 -9.078125 C 5.210938 -10.066406 6.773438 -10.5625 8.828125 -10.5625 C 10.773438 -10.5625 12.269531 -10.066406 13.3125 -9.078125 C 14.351562 -8.097656 14.875 -6.707031 14.875 -4.90625 C 14.875 -3.132812 14.335938 -1.75 13.265625 -0.75 C 12.191406 0.238281 10.710938 0.734375 8.828125 0.734375 C 6.878906 0.734375 5.34375 0.242188 4.21875 -0.734375 C 3.09375 -1.722656 2.53125 -3.113281 2.53125 -4.90625 Z M 2.53125 -4.90625" transform="translate(129.63 210.99)"/></g></g></g><g><g><g><path d="M 6.65625 -0.5625 L 8.9375 -1.140625 L 8.9375 -25.65625 L 4.5625 -25.65625 C 4.5625 -24.101562 4.144531 -22.617188 3.3125 -21.203125 C 2.957031 -20.617188 2.550781 -20.140625 2.09375 -19.765625 L 0.953125 -19.765625 L 0.953125 -26.59375 L 23.1875 -26.59375 L 23.1875 -19.765625 L 22.046875 -19.765625 C 21.554688 -20.140625 21.132812 -20.617188 20.78125 -21.203125 C 19.96875 -22.566406 19.5625 -24.050781 19.5625 -25.65625 L 15.203125 -25.65625 L 15.203125 -1.140625 L 17.484375 -0.5625 L 17.484375 0 L 6.65625 0 Z M 6.65625 -0.5625" transform="translate(192.319 200.25)"/></g></g></g><g><g><g><path d="M 11.78125 0.5625 C 8.539062 0.5625 6.019531 -0.328125 4.21875 -2.109375 C 2.414062 -3.890625 1.515625 -6.351562 1.515625 -9.5 C 1.515625 -11.550781 1.90625 -13.335938 2.6875 -14.859375 C 3.476562 -16.378906 4.578125 -17.539062 5.984375 -18.34375 C 7.390625 -19.15625 9.003906 -19.5625 10.828125 -19.5625 C 12.648438 -19.5625 14.25 -19.21875 15.625 -18.53125 C 17.007812 -17.851562 18.078125 -16.9375 18.828125 -15.78125 C 19.578125 -14.632812 19.953125 -13.363281 19.953125 -11.96875 C 19.953125 -11.332031 19.890625 -10.789062 19.765625 -10.34375 L 19.5625 -9.6875 C 18.476562 -9.457031 17.300781 -9.269531 16.03125 -9.125 C 13.375 -8.738281 10.691406 -8.546875 7.984375 -8.546875 C 7.984375 -5.609375 8.382812 -3.507812 9.1875 -2.25 C 10 -1 11.117188 -0.375 12.546875 -0.375 C 13.523438 -0.375 14.4375 -0.609375 15.28125 -1.078125 C 16.132812 -1.546875 16.804688 -2.164062 17.296875 -2.9375 C 17.796875 -3.71875 18.046875 -4.507812 18.046875 -5.3125 L 19 -5.3125 C 19 -4.300781 18.691406 -3.335938 18.078125 -2.421875 C 17.472656 -1.515625 16.625 -0.789062 15.53125 -0.25 C 14.445312 0.289062 13.195312 0.5625 11.78125 0.5625 Z M 7.984375 -9.5 C 9.597656 -9.5 10.914062 -9.5625 11.9375 -9.6875 C 12.363281 -9.71875 12.816406 -9.78125 13.296875 -9.875 C 13.328125 -10 13.390625 -10.28125 13.484375 -10.71875 C 13.617188 -11.351562 13.6875 -12.023438 13.6875 -12.734375 C 13.6875 -14.835938 13.40625 -16.375 12.84375 -17.34375 C 12.289062 -18.320312 11.617188 -18.8125 10.828125 -18.8125 C 8.929688 -18.8125 7.984375 -15.707031 7.984375 -9.5 Z M 7.984375 -9.5" transform="translate(216.444 200.25)"/></g></g></g><g><g><g><path d="M 1.515625 -0.5625 L 3.796875 -1.140625 L 3.796875 -25.453125 L 1.515625 -26.03125 L 1.515625 -26.59375 L 6.453125 -26.59375 C 8.734375 -26.59375 9.875 -25.457031 9.875 -23.1875 L 9.875 -1.140625 L 12.15625 -0.5625 L 12.15625 0 L 1.515625 0 Z M 1.515625 -0.5625" transform="translate(237.72 200.25)"/></g></g></g><g><g><g><path d="M 1.515625 -0.953125 L 12.34375 -18.046875 L 5.515625 -18.046875 C 5.515625 -16.648438 5.09375 -15.242188 4.25 -13.828125 C 3.925781 -13.296875 3.523438 -12.800781 3.046875 -12.34375 L 1.90625 -12.34375 L 1.90625 -19 L 19.1875 -19 L 19.1875 -18.046875 L 8.359375 -0.953125 L 15.578125 -0.953125 C 15.578125 -2.390625 15.984375 -3.796875 16.796875 -5.171875 C 17.148438 -5.753906 17.566406 -6.25 18.046875 -6.65625 L 19.1875 -6.65625 L 19.1875 0 L 1.515625 0 Z M 1.515625 -0.953125" transform="translate(250.637 200.25)"/></g></g></g><g><g><g><path d="M 1.515625 -0.5625 L 3.796875 -1.140625 L 3.796875 -17.859375 L 1.515625 -18.4375 L 1.515625 -19 L 6.453125 -19 C 8.734375 -19 9.875 -17.859375 9.875 -15.578125 L 9.875 -1.140625 L 12.15625 -0.5625 L 12.15625 0 L 1.515625 0 Z M 6.453125 -21.28125 C 5.691406 -21.28125 5.054688 -21.53125 4.546875 -22.03125 C 4.046875 -22.539062 3.796875 -23.175781 3.796875 -23.9375 C 3.796875 -24.695312 4.046875 -25.328125 4.546875 -25.828125 C 5.054688 -26.335938 5.691406 -26.59375 6.453125 -26.59375 C 7.210938 -26.59375 7.84375 -26.335938 8.34375 -25.828125 C 8.851562 -25.328125 9.109375 -24.695312 9.109375 -23.9375 C 9.109375 -23.175781 8.851562 -22.539062 8.34375 -22.03125 C 7.84375 -21.53125 7.210938 -21.28125 6.453125 -21.28125 Z M 6.453125 -21.28125" transform="translate(271.342 200.25)"/></g></g></g><g><g><g><path d="M 1.515625 -0.5625 L 3.796875 -1.140625 L 3.796875 -17.859375 L 1.515625 -18.4375 L 1.515625 -19 L 4.9375 -19 C 6.4375 -19 7.613281 -18.519531 8.46875 -17.5625 C 8.800781 -17.175781 9.082031 -16.707031 9.3125 -16.15625 C 9.6875 -16.707031 10.15625 -17.210938 10.71875 -17.671875 C 11.976562 -18.679688 13.394531 -19.1875 14.96875 -19.1875 C 16.3125 -19.1875 17.316406 -18.875 17.984375 -18.25 C 18.660156 -17.632812 19 -16.742188 19 -15.578125 C 19 -14.710938 18.738281 -14.019531 18.21875 -13.5 C 17.695312 -12.988281 17.007812 -12.734375 16.15625 -12.734375 C 15.800781 -12.734375 15.445312 -12.757812 15.09375 -12.8125 L 14.625 -12.921875 L 14.625 -18.234375 C 13.332031 -18.234375 12.15625 -17.726562 11.09375 -16.71875 C 10.59375 -16.207031 10.1875 -15.703125 9.875 -15.203125 L 9.875 -1.140625 L 12.15625 -0.5625 L 12.15625 0 L 1.515625 0 Z M 1.515625 -0.5625" transform="translate(284.26 200.25)"/></g></g></g></svg>