<svg xmlns="http://www.w3.org/2000/svg" width="375" viewBox="0 0 375 375" height="375" version="1.0"><defs><clipPath id="a"><path d="M 35.851562 35.851562 L 350 35.851562 L 350 350 L 35.851562 350 Z M 35.851562 35.851562"/></clipPath></defs><path fill="#5CE1E6" d="M 193.304688 37.5 C 107.257812 37.5 37.5 107.257812 37.5 193.304688 C 37.5 279.351562 107.257812 349.109375 193.304688 349.109375 C 279.351562 349.109375 349.109375 279.351562 349.109375 193.304688 C 349.109375 107.257812 279.351562 37.5 193.304688 37.5"/><g fill="#FFF"><g><g><path d="M 75.171875 0 L 38.1875 0 L 38.1875 -106.625 L 4.78125 -106.625 L 4.78125 -136.859375 L 108.5 -136.859375 L 108.5 -106.625 L 75.171875 -106.625 Z M 75.171875 0" transform="translate(108.482 267.342)"/></g></g></g><g fill="#FFF"><g><g><path d="M 8.046875 -15.546875 C 8.046875 -21.285156 9.742188 -25.710938 13.140625 -28.828125 C 16.546875 -31.953125 21.492188 -33.515625 27.984375 -33.515625 C 34.171875 -33.515625 38.914062 -31.953125 42.21875 -28.828125 C 45.53125 -25.710938 47.1875 -21.285156 47.1875 -15.546875 C 47.1875 -9.921875 45.484375 -5.53125 42.078125 -2.375 C 38.679688 0.769531 33.984375 2.34375 27.984375 2.34375 C 21.804688 2.34375 16.9375 0.785156 13.375 -2.328125 C 9.820312 -5.453125 8.046875 -9.859375 8.046875 -15.546875 Z M 8.046875 -15.546875" transform="translate(221.747 267.342)"/></g></g></g><g clip-path="url(#a)"><path fill="#FFDE59" d="M 192.636719 35.53125 C 105.648438 35.53125 35.53125 105.648438 35.53125 192.636719 C 35.53125 279.625 105.648438 349.738281 192.636719 349.738281 C 279.625 349.738281 349.738281 279.625 349.738281 192.636719 C 349.738281 105.648438 279.625 35.53125 192.636719 35.53125 Z M 192.636719 49.804688 C 271.976562 49.804688 335.46875 113.296875 335.46875 192.636719 C 335.46875 271.976562 271.976562 335.46875 192.636719 335.46875 C 113.296875 335.46875 49.804688 271.976562 49.804688 192.636719 C 49.804688 113.296875 113.296875 49.804688 192.636719 49.804688 Z M 192.636719 49.804688"/></g></svg>