<svg xmlns="http://www.w3.org/2000/svg" width="82.5" viewBox="0 0 82.5 31.5" height="31.5" version="1.0"><defs><clipPath id="a"><path d="M 0.398438 0 L 81.609375 0 L 81.609375 31.007812 L 0.398438 31.007812 Z M 0.398438 0"/></clipPath><clipPath id="b"><path d="M 4 0 L 36 0 L 36 31.007812 L 4 31.007812 Z M 4 0"/></clipPath></defs><g clip-path="url(#a)" fill="#FFF"><path d="M 0.398438 0 L 82.101562 0 L 82.101562 37.878906 L 0.398438 37.878906 Z M 0.398438 0"/><path d="M 0.398438 0 L 82.101562 0 L 82.101562 31.195312 L 0.398438 31.195312 Z M 0.398438 0"/><path d="M 0.398438 0 L 82.101562 0 L 82.101562 31.195312 L 0.398438 31.195312 Z M 0.398438 0"/></g><g clip-path="url(#b)"><path fill="#5CE1E6" d="M 19.964844 0 C 11.324219 0 4.320312 7.003906 4.320312 15.644531 C 4.320312 24.285156 11.324219 31.289062 19.964844 31.289062 C 28.605469 31.289062 35.609375 24.285156 35.609375 15.644531 C 35.609375 7.003906 28.605469 0 19.964844 0"/></g><g fill="#FFF"><g><g><path d="M 7.546875 0 L 3.828125 0 L 3.828125 -10.703125 L 0.484375 -10.703125 L 0.484375 -13.734375 L 10.890625 -13.734375 L 10.890625 -10.703125 L 7.546875 -10.703125 Z M 7.546875 0" transform="translate(11.447 23.079)"/></g></g></g><g fill="#FFF"><g><g><path d="M 0.8125 -1.5625 C 0.8125 -2.132812 0.976562 -2.578125 1.3125 -2.890625 C 1.65625 -3.203125 2.15625 -3.359375 2.8125 -3.359375 C 3.425781 -3.359375 3.898438 -3.203125 4.234375 -2.890625 C 4.566406 -2.578125 4.734375 -2.132812 4.734375 -1.5625 C 4.734375 -1 4.5625 -0.554688 4.21875 -0.234375 C 3.882812 0.078125 3.414062 0.234375 2.8125 0.234375 C 2.1875 0.234375 1.695312 0.078125 1.34375 -0.234375 C 0.988281 -0.546875 0.8125 -0.988281 0.8125 -1.5625 Z M 0.8125 -1.5625" transform="translate(22.82 23.079)"/></g></g></g><g><g><g><path d="M 2.109375 -0.1875 L 2.84375 -0.359375 L 2.84375 -8.15625 L 1.453125 -8.15625 C 1.453125 -7.664062 1.316406 -7.195312 1.046875 -6.75 C 0.941406 -6.5625 0.816406 -6.40625 0.671875 -6.28125 L 0.296875 -6.28125 L 0.296875 -8.46875 L 7.375 -8.46875 L 7.375 -6.28125 L 7.015625 -6.28125 C 6.859375 -6.40625 6.722656 -6.5625 6.609375 -6.75 C 6.359375 -7.1875 6.234375 -7.65625 6.234375 -8.15625 L 4.84375 -8.15625 L 4.84375 -0.359375 L 5.5625 -0.1875 L 5.5625 0 L 2.109375 0 Z M 2.109375 -0.1875" transform="translate(42.785 19.658)"/></g></g></g><g><g><g><path d="M 3.75 0.1875 C 2.71875 0.1875 1.914062 -0.0976562 1.34375 -0.671875 C 0.769531 -1.242188 0.484375 -2.03125 0.484375 -3.03125 C 0.484375 -3.675781 0.609375 -4.238281 0.859375 -4.71875 C 1.109375 -5.207031 1.457031 -5.582031 1.90625 -5.84375 C 2.351562 -6.101562 2.867188 -6.234375 3.453125 -6.234375 C 4.023438 -6.234375 4.53125 -6.125 4.96875 -5.90625 C 5.414062 -5.6875 5.753906 -5.390625 5.984375 -5.015625 C 6.222656 -4.648438 6.34375 -4.25 6.34375 -3.8125 C 6.34375 -3.601562 6.320312 -3.429688 6.28125 -3.296875 L 6.234375 -3.078125 C 5.878906 -3.003906 5.503906 -2.945312 5.109375 -2.90625 C 4.253906 -2.78125 3.398438 -2.71875 2.546875 -2.71875 C 2.546875 -1.78125 2.671875 -1.113281 2.921875 -0.71875 C 3.179688 -0.320312 3.535156 -0.125 3.984375 -0.125 C 4.304688 -0.125 4.597656 -0.195312 4.859375 -0.34375 C 5.128906 -0.488281 5.34375 -0.6875 5.5 -0.9375 C 5.664062 -1.1875 5.75 -1.4375 5.75 -1.6875 L 6.046875 -1.6875 C 6.046875 -1.363281 5.945312 -1.054688 5.75 -0.765625 C 5.5625 -0.484375 5.289062 -0.253906 4.9375 -0.078125 C 4.59375 0.0976562 4.195312 0.1875 3.75 0.1875 Z M 2.546875 -3.03125 C 3.054688 -3.03125 3.472656 -3.046875 3.796875 -3.078125 C 3.929688 -3.085938 4.078125 -3.109375 4.234375 -3.140625 C 4.242188 -3.179688 4.265625 -3.269531 4.296875 -3.40625 C 4.335938 -3.613281 4.359375 -3.828125 4.359375 -4.046875 C 4.359375 -4.722656 4.269531 -5.210938 4.09375 -5.515625 C 3.914062 -5.828125 3.703125 -5.984375 3.453125 -5.984375 C 2.847656 -5.984375 2.546875 -5 2.546875 -3.03125 Z M 2.546875 -3.03125" transform="translate(50.468 19.658)"/></g></g></g><g><g><g><path d="M 0.484375 -0.1875 L 1.203125 -0.359375 L 1.203125 -8.109375 L 0.484375 -8.28125 L 0.484375 -8.46875 L 2.0625 -8.46875 C 2.78125 -8.46875 3.140625 -8.101562 3.140625 -7.375 L 3.140625 -0.359375 L 3.875 -0.1875 L 3.875 0 L 0.484375 0 Z M 0.484375 -0.1875" transform="translate(57.243 19.658)"/></g></g></g><g><g><g><path d="M 0.484375 -0.296875 L 3.9375 -5.75 L 1.75 -5.75 C 1.75 -5.300781 1.617188 -4.851562 1.359375 -4.40625 C 1.253906 -4.226562 1.125 -4.070312 0.96875 -3.9375 L 0.609375 -3.9375 L 0.609375 -6.046875 L 6.109375 -6.046875 L 6.109375 -5.75 L 2.65625 -0.296875 L 4.953125 -0.296875 C 4.953125 -0.753906 5.082031 -1.203125 5.34375 -1.640625 C 5.457031 -1.828125 5.59375 -1.984375 5.75 -2.109375 L 6.109375 -2.109375 L 6.109375 0 L 0.484375 0 Z M 0.484375 -0.296875" transform="translate(61.357 19.658)"/></g></g></g><g><g><g><path d="M 0.484375 -0.1875 L 1.203125 -0.359375 L 1.203125 -5.6875 L 0.484375 -5.859375 L 0.484375 -6.046875 L 2.0625 -6.046875 C 2.78125 -6.046875 3.140625 -5.679688 3.140625 -4.953125 L 3.140625 -0.359375 L 3.875 -0.1875 L 3.875 0 L 0.484375 0 Z M 2.046875 -6.765625 C 1.804688 -6.765625 1.601562 -6.84375 1.4375 -7 C 1.28125 -7.164062 1.203125 -7.375 1.203125 -7.625 C 1.203125 -7.863281 1.28125 -8.0625 1.4375 -8.21875 C 1.601562 -8.382812 1.804688 -8.46875 2.046875 -8.46875 C 2.296875 -8.46875 2.5 -8.382812 2.65625 -8.21875 C 2.820312 -8.0625 2.90625 -7.863281 2.90625 -7.625 C 2.90625 -7.375 2.820312 -7.164062 2.65625 -7 C 2.5 -6.84375 2.296875 -6.765625 2.046875 -6.765625 Z M 2.046875 -6.765625" transform="translate(67.951 19.658)"/></g></g></g><g><g><g><path d="M 0.484375 -0.1875 L 1.203125 -0.359375 L 1.203125 -5.6875 L 0.484375 -5.859375 L 0.484375 -6.046875 L 1.578125 -6.046875 C 2.046875 -6.046875 2.421875 -5.894531 2.703125 -5.59375 C 2.804688 -5.46875 2.894531 -5.316406 2.96875 -5.140625 C 3.082031 -5.316406 3.226562 -5.476562 3.40625 -5.625 C 3.8125 -5.945312 4.265625 -6.109375 4.765625 -6.109375 C 5.191406 -6.109375 5.507812 -6.007812 5.71875 -5.8125 C 5.9375 -5.613281 6.046875 -5.328125 6.046875 -4.953125 C 6.046875 -4.679688 5.960938 -4.460938 5.796875 -4.296875 C 5.628906 -4.128906 5.410156 -4.046875 5.140625 -4.046875 C 5.023438 -4.046875 4.910156 -4.054688 4.796875 -4.078125 L 4.65625 -4.109375 L 4.65625 -5.8125 C 4.25 -5.8125 3.875 -5.648438 3.53125 -5.328125 C 3.375 -5.160156 3.242188 -5 3.140625 -4.84375 L 3.140625 -0.359375 L 3.875 -0.1875 L 3.875 0 L 0.484375 0 Z M 0.484375 -0.1875" transform="translate(72.065 19.658)"/></g></g></g></svg>